<?xml version="1.0" encoding="UTF-8"?><svg xmlns="http://www.w3.org/2000/svg" viewBox="0 0 136 136"><defs><style>.cls-1{fill:#009bf4;}.cls-2{fill:#99d7fb;}</style></defs><g id="Icon"><path class="cls-1" d="m134,77.75c0,11.12-9.03,20.2-20.14,20.25h-27.86v-6h27.85c7.8-.03,14.15-6.43,14.15-14.25s-6.36-14.25-14.19-14.25h-3.57l.4-3.36c.14-1.16.21-2.29.21-3.47,0-15.26-12.36-27.67-27.55-27.67-9.64,0-18.7,5.15-23.63,13.44l-1.57,2.65-2.6-1.64c-3.07-1.93-6.67-2.95-10.4-2.95-10.98,0-19.91,8.97-19.91,20v3h-3c-7.83,0-14.19,6.39-14.19,14.25s6.36,14.25,14.19,14.25h27.81v6h-27.81c-11.13,0-20.19-9.09-20.19-20.25,0-10.2,7.55-18.66,17.34-20.05,1.39-13.03,12.41-23.2,25.76-23.2,3.86,0,7.61.84,11.01,2.45,6.24-8.67,16.41-13.95,27.19-13.95,18.5,0,33.55,15.1,33.55,33.67,0,.35,0,.7-.02,1.05,9.71,1.47,17.17,9.89,17.17,20.03Z"/><path class="cls-1" d="m48.22,59.07h-4.07l-7.96,17.85h4.23l1.58-3.82h8.29l1.58,3.82h4.34l-7.99-17.85Zm-4.89,10.89l2.83-6.83,2.83,6.83h-5.66Z"/><path class="cls-1" d="m80.13,59.07l-4.16,12.65-4.08-12.65h-3.83l-4.2,12.55-4.03-12.55h-4.29l5.87,17.85h4.41l4.05-12.08,3.93,12.08h4.44l5.84-17.85h-3.95Z"/><path class="cls-1" d="m98.88,68.87c-.62-.7-1.36-1.21-2.23-1.53-.87-.33-1.98-.65-3.34-.97-1.31-.29-2.28-.59-2.92-.88-.64-.3-.96-.76-.96-1.37s.28-1.1.83-1.48c.55-.37,1.41-.56,2.56-.56,1.65,0,3.3.47,4.95,1.41l1.28-3.14c-.82-.51-1.77-.9-2.86-1.17-1.09-.28-2.2-.41-3.34-.41-1.63,0-3.01.24-4.14.74-1.13.49-1.98,1.16-2.54,2s-.84,1.78-.84,2.82c0,1.19.31,2.14.93,2.85.62.72,1.36,1.24,2.23,1.56.87.32,1.98.64,3.34.97.88.2,1.58.39,2.1.56s.95.39,1.28.67.5.64.5,1.06c0,.58-.28,1.04-.85,1.39-.56.35-1.42.52-2.6.52-1.05,0-2.1-.17-3.16-.5-1.05-.34-1.96-.8-2.73-1.36l-1.4,3.11c.8.62,1.86,1.11,3.17,1.5,1.32.38,2.69.57,4.1.57,1.63,0,3.01-.25,4.15-.74,1.14-.49,2-1.16,2.57-2,.57-.84.85-1.77.85-2.79,0-1.19-.31-2.14-.93-2.83Z"/></g><g id="_"><polygon class="cls-2" points="80 92 80 98 71 98 71 107 65 107 65 98 56 98 56 92 65 92 65 83 71 83 71 92 80 92"/></g></svg>